HIERARCHY
ROOT hip
{
	OFFSET 0.000000 0.000000 0.000000 
	CHANNELS 6 Xposition Yposition Zposition Xrotation Zrotation Yrotation
	JOINT abdomen
	{
		OFFSET 0.000000 3.402643 0.000000 
		CHANNELS 3 Xrotation Zrotation Yrotation
		JOINT chest
		{
			OFFSET 0.000000 8.438565 -0.680529 
			CHANNELS 3 Xrotation Zrotation Yrotation
			JOINT neck
			{
				OFFSET 0.000000 10.207942 -0.272212 
				CHANNELS 3 Xrotation Zrotation Yrotation
				JOINT head
				{
					OFFSET 0.000000 3.130431 0.000000 
					CHANNELS 3 Xrotation Zrotation Yrotation
					End Site
					{
						OFFSET 0.000000 3.130435 0.000000 
					}
				}
			}
			JOINT lCollar
			{
				OFFSET 3.470700 6.669187 -0.816635 
				CHANNELS 3 Yrotation Zrotation Xrotation
				JOINT lShldr
				{
					OFFSET 3.198488 0.000000 0.000000 
					CHANNELS 3 Zrotation Yrotation Xrotation
					JOINT lForeArm
					{
						OFFSET 10.139888 0.000000 0.000000 
						CHANNELS 3 Yrotation Zrotation Xrotation
						JOINT lHand
						{
							OFFSET 8.370511 0.000000 0.000000 
							CHANNELS 3 Zrotation Yrotation Xrotation
							End Site
							{
								OFFSET 4.083176 0.000000 0.000000 
							}
						}
					}
				}
			}
			JOINT rCollar
			{
				OFFSET -3.470700 6.669187 -0.816635 
				CHANNELS 3 Yrotation Zrotation Xrotation
				JOINT rShldr
				{
					OFFSET -3.198488 0.000000 0.000000 
					CHANNELS 3 Zrotation Yrotation Xrotation
					JOINT rForeArm
					{
						OFFSET -10.139888 0.000000 0.000000 
						CHANNELS 3 Yrotation Zrotation Xrotation
						JOINT rHand
						{
							OFFSET -8.370511 0.000000 0.000000 
							CHANNELS 3 Zrotation Yrotation Xrotation
							End Site
							{
								OFFSET -4.083176 0.000000 0.000000 
							}
						}
					}
				}
			}
		}
	}
	JOINT lThigh
	{
		OFFSET 5.308129 -1.633274 1.361059 
		CHANNELS 3 Xrotation Zrotation Yrotation
		JOINT lShin
		{
			OFFSET -2.041588 -20.007561 0.000000 
			CHANNELS 3 Xrotation Zrotation Yrotation
			JOINT lFoot
			{
				OFFSET 0.000000 -19.190928 -1.224953 
				CHANNELS 3 Xrotation Yrotation Zrotation
				End Site
				{
					OFFSET 0.000000 -2.449906 4.627600 
				}
			}
		}
	}
	JOINT rThigh
	{
		OFFSET -5.308129 -1.633274 1.361059 
		CHANNELS 3 Xrotation Zrotation Yrotation
		JOINT rShin
		{
			OFFSET 2.041588 -20.007561 0.000000 
			CHANNELS 3 Xrotation Zrotation Yrotation
			JOINT rFoot
			{
				OFFSET 0.000000 -19.190928 -1.224953 
				CHANNELS 3 Xrotation Yrotation Zrotation
				End Site
				{
					OFFSET 0.000000 -2.449906 4.627600 
				}
			}
		}
	}
}
MOTION
Frames: 13
Frame Time: 0.033333
-0.177795 49.475864 0.486848 -0.264086 5.483229 -6.416161 0.000000 0.000000 0.000000 -1.584194 -8.204812 4.725910 6.670185 0.771484 0.019661 -10.164035 -1.994861 -10.866311 6.940597 21.439878 21.798664 -82.316673 -27.635540 -13.486156 -40.028515 -22.580322 41.203541 -5.602317 9.711224 47.768669 -19.698719 -14.865205 18.968588 73.575119 22.991842 69.821770 18.600782 -17.152977 -17.212248 25.997458 -2.217719 -10.049081 22.671270 -4.050280 14.590567 32.677006 0.513791 -1.132086 -7.566019 -7.378818 -24.169573 -9.904688 -1.424846 1.013818 19.896885 1.880826 1.193779 -1.544394 3.945909 14.024492 
-0.304814 49.901493 0.830642 -1.279844 6.488636 -5.946368 0.000000 0.000000 0.000000 -0.868075 -8.985752 4.546762 6.289382 -0.312500 -0.058646 -9.132580 -1.521323 -11.547141 7.511728 20.183184 21.731588 -86.615608 -20.020607 -11.538811 -34.878540 -14.078312 45.644924 -7.363722 15.932340 47.072201 -19.872454 -16.543997 18.293877 72.741325 31.629015 67.400192 19.853619 -17.148626 -21.250874 22.978828 -0.820298 -10.091676 16.503342 -4.159817 15.155231 43.541931 5.043020 -0.733216 -3.365678 -10.658452 -27.420540 -4.924855 -3.169536 0.329747 18.211866 2.320795 1.123119 -3.144027 6.298941 11.613316 
-0.421079 50.389866 0.998388 -2.961494 7.447623 -4.530162 0.000000 0.000000 0.000000 0.901813 -9.318228 4.432585 6.428427 -2.910130 -0.244817 -8.734177 -0.618501 -12.998858 10.690396 17.034384 21.106163 -87.918777 -14.408214 -11.132338 -32.409237 -5.736963 54.793667 -13.925474 22.443817 43.552650 -19.193871 -20.677643 17.049282 69.352905 40.441925 63.346622 22.004547 -19.096989 -26.738562 20.230751 0.699590 -10.164462 8.515558 -4.404193 15.584666 50.485939 9.211648 -0.158247 -3.139712 -11.382213 -25.741617 1.188860 -5.196729 -0.422269 15.289073 3.055327 1.015493 -3.495553 6.744406 12.260870 
-0.528545 50.757195 0.858005 -4.592209 8.146236 -2.564626 0.000000 0.000000 0.000000 3.637456 -8.889590 4.447276 6.088716 -6.259538 -0.491759 -8.966723 0.415553 -14.736712 15.019821 14.233459 20.378748 -87.801414 -9.909774 -11.481784 -32.132507 -0.568529 59.021126 -17.446543 24.872620 41.653515 -17.914370 -26.795668 15.575263 61.241798 48.180473 56.453400 22.314936 -21.885855 -35.977703 17.672626 1.809591 -10.402663 -1.002034 -4.332520 15.800499 51.436386 10.812655 0.168987 -4.471485 -8.363690 -24.418526 6.297138 -6.814915 -1.033030 13.375552 3.689933 0.991890 -3.325653 5.454206 15.675327 
-0.614202 50.899506 0.463749 -6.051897 8.857407 -0.107644 0.000000 0.000000 0.000000 7.112222 -8.236934 4.469042 5.177751 -9.091145 -0.693523 -9.441824 1.010769 -16.594307 19.053152 13.330893 19.501575 -87.355972 -6.038673 -12.029432 -31.704607 -0.193006 53.314182 -14.973856 24.978619 43.237209 -16.641626 -30.000000 14.258091 47.081635 52.443802 46.439716 19.443483 -23.741280 -49.569706 15.622241 2.671683 -10.716008 -11.174799 -4.296937 15.497754 47.041061 9.245414 0.021906 -5.895767 -5.587578 -21.893085 10.027500 -8.007170 -1.468434 12.964600 4.148260 1.074579 -3.755730 3.509156 18.725010 
-0.694713 50.804039 -0.060832 -7.442722 9.378642 2.088690 0.000000 0.000000 0.000000 10.877405 -7.174942 4.537371 4.032441 -11.258569 -0.846515 -9.601727 1.383325 -18.071804 22.939489 14.143216 18.047869 -86.637039 -1.470738 -12.882402 -31.942268 -4.356925 43.551575 -11.873017 24.239225 44.977306 -15.015589 -30.000000 13.613463 28.175400 52.717163 34.843662 13.655206 -21.528372 -66.071136 14.246593 3.703386 -11.002221 -21.765865 -4.072109 14.643106 38.786888 4.964203 -0.510240 -6.335305 -5.208850 -20.548365 13.099363 -8.414481 -1.619091 13.206437 4.323429 1.119608 -5.011075 1.325258 19.772379 
-0.737606 50.663952 -0.539281 -9.548099 9.734323 2.844908 0.000000 0.000000 0.000000 15.073996 -5.869721 4.613665 2.726978 -13.210977 -0.994772 -9.457289 1.959026 -18.067423 27.022558 14.924363 16.371351 -85.181396 3.579666 -14.379834 -33.124363 -9.658238 38.899536 -10.737472 23.385845 45.520061 -12.341896 -30.000000 14.273595 10.236713 49.557163 26.193781 8.578770 -14.256683 -82.630951 13.098772 4.755732 -11.261996 -31.075848 -3.663000 13.542222 28.825607 0.364792 -0.990774 -4.423132 -2.627150 -22.104605 16.805895 -8.271496 -1.617437 13.185601 4.195558 1.095967 -6.330735 -0.182123 19.923418 
-0.704751 50.613552 -0.932940 -11.897511 9.984546 1.953942 0.000000 0.000000 0.000000 18.971985 -4.886584 4.606400 1.368664 -14.841081 -1.113419 -9.186375 2.686905 -16.541832 30.606724 15.058884 15.050049 -83.755844 8.554840 -16.092239 -34.360058 -13.369265 39.633820 -10.300088 23.121393 45.658405 -9.600117 -30.000000 15.531319 -2.689308 45.857784 21.804605 7.570128 -5.498451 -96.683914 11.795925 5.496501 -11.458879 -38.864082 -2.597654 12.453793 20.135330 -2.727934 -1.146514 -2.052145 3.156680 -24.467865 20.597723 -8.180753 -1.640953 12.867971 3.931432 1.027375 -7.554085 -0.556110 19.473917 
-0.620399 50.593304 -1.217505 -13.375780 9.912057 0.189501 0.000000 0.000000 0.000000 21.251303 -4.224607 4.611545 0.360253 -16.022064 -1.199219 -8.826260 3.492832 -14.255073 32.906895 15.136978 14.157918 -83.181526 13.495202 -17.497307 -35.086403 -14.795308 42.590378 -11.449174 24.568663 44.918293 -7.401230 -30.000000 16.832636 -11.975208 42.832352 19.689787 9.578712 0.561717 -107.570488 10.719511 5.927181 -11.548197 -46.711922 -0.489436 11.385917 15.137767 -4.298292 -1.138129 -0.173746 8.948220 -26.948112 23.200647 -8.182676 -1.632342 12.904415 3.706219 0.960211 -8.320521 -0.106458 19.499462 
-0.526954 50.643986 -1.383086 -14.805521 9.605769 -1.584585 0.000000 0.000000 0.000000 22.935366 -3.679451 4.618654 -0.151085 -16.666212 -1.244977 -8.568670 3.768399 -12.351067 34.011936 15.293348 13.641574 -83.431587 17.287178 -18.282698 -35.281063 -14.484584 46.547997 -14.990214 26.735582 42.954742 -5.487104 -30.000000 18.264158 -17.863283 40.618984 19.013193 11.493424 3.094335 -113.689880 10.611991 6.354327 -11.468575 -52.756435 1.717623 10.531859 13.712269 -4.854163 -1.153955 1.453367 10.834213 -28.472454 25.327526 -8.358338 -1.695843 13.841019 3.571598 1.012932 -8.495228 0.644924 21.379871 
-0.407034 50.783798 -1.561726 -15.812974 9.178442 -2.828835 0.000000 0.000000 0.000000 23.964346 -2.968461 4.713345 -0.133001 -17.066319 -1.278716 -8.536005 3.717535 -11.166320 34.393665 15.292050 13.498361 -84.173805 19.622734 -18.387354 -36.038231 -13.503018 51.239498 -20.003151 28.421890 40.105518 -3.998364 -30.000000 19.476269 -21.072346 39.620144 18.636021 12.076686 3.829356 -114.631081 11.322075 7.472397 -11.146618 -56.172298 3.008366 10.021708 13.723171 -4.822606 -1.151531 3.269306 8.828712 -28.366306 26.540892 -8.671453 -1.804519 15.562387 3.416211 1.144144 -8.087374 1.617288 25.263216 
-0.222837 50.987206 -1.845882 -15.911578 8.878367 -3.686291 0.000000 0.000000 0.000000 23.978504 -2.121146 4.895724 0.315961 -17.495701 -1.312536 -8.600500 3.739217 -10.177708 34.195892 15.157310 13.661878 -85.249672 20.519096 -17.794910 -37.249966 -13.026184 54.533356 -23.278353 28.625105 38.373425 -3.159236 -30.000000 20.259449 -22.020821 40.277573 17.663700 11.888722 3.371989 -112.053207 12.232225 7.869725 -10.924946 -56.593910 3.181799 9.953815 13.753052 -4.549535 -1.106565 5.654521 5.519660 -28.340031 26.886942 -9.313677 -1.996885 17.056288 3.217921 1.221005 -7.602074 3.171145 29.658400 
0.019220 51.178062 -2.208823 -15.112349 8.919732 -4.368584 0.000000 0.000000 0.000000 22.960308 -1.517410 5.099226 0.958058 -17.671370 -1.324818 -8.691226 3.766965 -9.424214 33.345463 15.062947 14.041689 -86.469475 20.511744 -16.779209 -38.306404 -13.961841 53.190174 -22.497547 27.291048 39.251053 -3.088237 -30.000000 20.467581 -21.494171 42.353100 15.897324 11.758834 2.762794 -106.653694 13.522600 8.117240 -10.604089 -54.350521 2.460132 10.367375 14.155965 -4.377347 -1.110085 6.810015 4.819016 -28.475737 26.956913 -10.368755 -2.357082 17.302055 3.335290 1.282285 -7.403449 4.713863 32.702110 
